<mxfile host="app.diagrams.net" agent="Mozilla/5.0 (Windows NT 10.0; Win64; x64) AppleWebKit/537.36 (KHTML, like Gecko) Chrome/137.0.0.0 Safari/537.36" version="28.2.5">
  <diagram name="หน้า-1" id="zrvMlosYhwJiWqUnWAUZ">
    <mxGraphModel dx="427455" dy="344630" grid="1" gridSize="10" guides="1" tooltips="1" connect="1" arrows="1" fold="1" page="1" pageScale="1" pageWidth="1654" pageHeight="2336" math="0" shadow="0">
      <root>
        <mxCell id="0" />
        <mxCell id="1" parent="0" />
        <mxCell id="okzSlxfTijOoqXMAd6EK-1" style="edgeStyle=orthogonalEdgeStyle;rounded=0;orthogonalLoop=1;jettySize=auto;html=1;entryX=0.5;entryY=0;entryDx=0;entryDy=0;" edge="1" parent="1" source="m0" target="m1">
          <mxGeometry relative="1" as="geometry" />
        </mxCell>
        <mxCell id="m0" value="Start" style="ellipse;whiteSpace=wrap;html=1;" vertex="1" parent="1">
          <mxGeometry x="-59240" y="-13590" width="130" height="50" as="geometry" />
        </mxCell>
        <mxCell id="okzSlxfTijOoqXMAd6EK-2" style="edgeStyle=orthogonalEdgeStyle;rounded=0;orthogonalLoop=1;jettySize=auto;html=1;entryX=0.5;entryY=0;entryDx=0;entryDy=0;" edge="1" parent="1" source="m1" target="m2">
          <mxGeometry relative="1" as="geometry" />
        </mxCell>
        <mxCell id="m1" value="ตั้งค่าเริ่มต้น&#xa;score = 0" style="whiteSpace=wrap;html=1;" vertex="1" parent="1">
          <mxGeometry x="-59270" y="-13500" width="190" height="60" as="geometry" />
        </mxCell>
        <mxCell id="okzSlxfTijOoqXMAd6EK-3" style="edgeStyle=orthogonalEdgeStyle;rounded=0;orthogonalLoop=1;jettySize=auto;html=1;entryX=0.5;entryY=0;entryDx=0;entryDy=0;" edge="1" parent="1" source="m2" target="m3">
          <mxGeometry relative="1" as="geometry" />
        </mxCell>
        <mxCell id="m2" value="แสดงข้อความ&#xa;Please enter your score:" style="shape=parallelogram;perimeter=parallelogramPerimeter;whiteSpace=wrap;html=1;" vertex="1" parent="1">
          <mxGeometry x="-59310" y="-13380" width="270" height="60" as="geometry" />
        </mxCell>
        <mxCell id="okzSlxfTijOoqXMAd6EK-4" style="edgeStyle=orthogonalEdgeStyle;rounded=0;orthogonalLoop=1;jettySize=auto;html=1;entryX=0.5;entryY=0;entryDx=0;entryDy=0;" edge="1" parent="1" source="m3" target="m4">
          <mxGeometry relative="1" as="geometry" />
        </mxCell>
        <mxCell id="m3" value="รับค่า score (จำนวนเต็ม)" style="shape=parallelogram;perimeter=parallelogramPerimeter;whiteSpace=wrap;html=1;" vertex="1" parent="1">
          <mxGeometry x="-59300" y="-13260" width="250" height="60" as="geometry" />
        </mxCell>
        <mxCell id="okzSlxfTijOoqXMAd6EK-5" style="edgeStyle=orthogonalEdgeStyle;rounded=0;orthogonalLoop=1;jettySize=auto;html=1;entryX=0.5;entryY=0;entryDx=0;entryDy=0;" edge="1" parent="1" source="m4" target="c1">
          <mxGeometry relative="1" as="geometry" />
        </mxCell>
        <mxCell id="m4" value="แสดงข้อความ&#xa;Grade:" style="shape=parallelogram;perimeter=parallelogramPerimeter;whiteSpace=wrap;html=1;" vertex="1" parent="1">
          <mxGeometry x="-59280" y="-13150" width="210" height="60" as="geometry" />
        </mxCell>
        <mxCell id="okzSlxfTijOoqXMAd6EK-6" style="edgeStyle=orthogonalEdgeStyle;rounded=0;orthogonalLoop=1;jettySize=auto;html=1;" edge="1" parent="1" source="c1" target="outA">
          <mxGeometry relative="1" as="geometry" />
        </mxCell>
        <mxCell id="okzSlxfTijOoqXMAd6EK-8" style="edgeStyle=orthogonalEdgeStyle;rounded=0;orthogonalLoop=1;jettySize=auto;html=1;entryX=0.5;entryY=0;entryDx=0;entryDy=0;" edge="1" parent="1" source="c1" target="c2">
          <mxGeometry relative="1" as="geometry" />
        </mxCell>
        <mxCell id="c1" value="score ≥ 80 ?" style="rhombus;whiteSpace=wrap;html=1;" vertex="1" parent="1">
          <mxGeometry x="-59270" y="-13040" width="190" height="80" as="geometry" />
        </mxCell>
        <mxCell id="outA" value="แสดงผล&#xa;A" style="shape=parallelogram;perimeter=parallelogramPerimeter;whiteSpace=wrap;html=1;" vertex="1" parent="1">
          <mxGeometry x="-59270" y="-12900" width="190" height="60" as="geometry" />
        </mxCell>
        <mxCell id="okzSlxfTijOoqXMAd6EK-7" style="edgeStyle=orthogonalEdgeStyle;rounded=0;orthogonalLoop=1;jettySize=auto;html=1;entryX=0.5;entryY=0;entryDx=0;entryDy=0;" edge="1" parent="1" source="c2" target="outB">
          <mxGeometry relative="1" as="geometry" />
        </mxCell>
        <mxCell id="okzSlxfTijOoqXMAd6EK-9" style="edgeStyle=orthogonalEdgeStyle;rounded=0;orthogonalLoop=1;jettySize=auto;html=1;entryX=0.5;entryY=0;entryDx=0;entryDy=0;" edge="1" parent="1" source="c2" target="c3">
          <mxGeometry relative="1" as="geometry" />
        </mxCell>
        <mxCell id="c2" value="score ≥ 70 และ &lt; 80 ?" style="rhombus;whiteSpace=wrap;html=1;" vertex="1" parent="1">
          <mxGeometry x="-59050" y="-12900" width="210" height="80" as="geometry" />
        </mxCell>
        <mxCell id="okzSlxfTijOoqXMAd6EK-15" style="edgeStyle=orthogonalEdgeStyle;rounded=0;orthogonalLoop=1;jettySize=auto;html=1;entryX=0.5;entryY=0;entryDx=0;entryDy=0;exitX=0.5;exitY=1;exitDx=0;exitDy=0;" edge="1" parent="1" source="outB" target="okzSlxfTijOoqXMAd6EK-14">
          <mxGeometry relative="1" as="geometry" />
        </mxCell>
        <mxCell id="outB" value="แสดงผล&#xa;B" style="shape=parallelogram;perimeter=parallelogramPerimeter;whiteSpace=wrap;html=1;" vertex="1" parent="1">
          <mxGeometry x="-59030" y="-12760" width="170" height="60" as="geometry" />
        </mxCell>
        <mxCell id="stopB" value="Stop" style="ellipse;whiteSpace=wrap;html=1;" vertex="1" parent="1">
          <mxGeometry x="-59225" y="-12390" width="110" height="45" as="geometry" />
        </mxCell>
        <mxCell id="okzSlxfTijOoqXMAd6EK-10" style="edgeStyle=orthogonalEdgeStyle;rounded=0;orthogonalLoop=1;jettySize=auto;html=1;entryX=0.561;entryY=-0.024;entryDx=0;entryDy=0;entryPerimeter=0;" edge="1" parent="1" source="c3" target="outC">
          <mxGeometry relative="1" as="geometry">
            <mxPoint x="-58715" y="-12680" as="targetPoint" />
          </mxGeometry>
        </mxCell>
        <mxCell id="okzSlxfTijOoqXMAd6EK-11" style="edgeStyle=orthogonalEdgeStyle;rounded=0;orthogonalLoop=1;jettySize=auto;html=1;exitX=1;exitY=0.5;exitDx=0;exitDy=0;entryX=0.5;entryY=0;entryDx=0;entryDy=0;" edge="1" parent="1" source="c3" target="c4">
          <mxGeometry relative="1" as="geometry" />
        </mxCell>
        <mxCell id="c3" value="score ≥ 60 และ &lt; 70 ?" style="rhombus;whiteSpace=wrap;html=1;" vertex="1" parent="1">
          <mxGeometry x="-58820" y="-12790" width="210" height="80" as="geometry" />
        </mxCell>
        <mxCell id="okzSlxfTijOoqXMAd6EK-16" style="edgeStyle=orthogonalEdgeStyle;rounded=0;orthogonalLoop=1;jettySize=auto;html=1;entryX=0.5;entryY=0;entryDx=0;entryDy=0;" edge="1" parent="1" source="outC" target="okzSlxfTijOoqXMAd6EK-14">
          <mxGeometry relative="1" as="geometry">
            <Array as="points">
              <mxPoint x="-58725" y="-12560" />
              <mxPoint x="-59170" y="-12560" />
            </Array>
          </mxGeometry>
        </mxCell>
        <mxCell id="outC" value="แสดงผล&#xa;C" style="shape=parallelogram;perimeter=parallelogramPerimeter;whiteSpace=wrap;html=1;" vertex="1" parent="1">
          <mxGeometry x="-58810" y="-12660" width="170" height="60" as="geometry" />
        </mxCell>
        <mxCell id="okzSlxfTijOoqXMAd6EK-12" style="edgeStyle=orthogonalEdgeStyle;rounded=0;orthogonalLoop=1;jettySize=auto;html=1;entryX=0.5;entryY=0;entryDx=0;entryDy=0;" edge="1" parent="1" source="c4" target="outD">
          <mxGeometry relative="1" as="geometry" />
        </mxCell>
        <mxCell id="okzSlxfTijOoqXMAd6EK-13" style="edgeStyle=orthogonalEdgeStyle;rounded=0;orthogonalLoop=1;jettySize=auto;html=1;entryX=0.5;entryY=0;entryDx=0;entryDy=0;" edge="1" parent="1" source="c4" target="outF">
          <mxGeometry relative="1" as="geometry" />
        </mxCell>
        <mxCell id="c4" value="score ≥ 50 และ &lt; 60 ?" style="rhombus;whiteSpace=wrap;html=1;" vertex="1" parent="1">
          <mxGeometry x="-58590" y="-12720" width="210" height="80" as="geometry" />
        </mxCell>
        <mxCell id="okzSlxfTijOoqXMAd6EK-17" style="edgeStyle=orthogonalEdgeStyle;rounded=0;orthogonalLoop=1;jettySize=auto;html=1;entryX=0.5;entryY=0;entryDx=0;entryDy=0;" edge="1" parent="1" source="outD" target="okzSlxfTijOoqXMAd6EK-14">
          <mxGeometry relative="1" as="geometry" />
        </mxCell>
        <mxCell id="outD" value="แสดงผล&#xa;D" style="shape=parallelogram;perimeter=parallelogramPerimeter;whiteSpace=wrap;html=1;" vertex="1" parent="1">
          <mxGeometry x="-58570" y="-12570" width="170" height="60" as="geometry" />
        </mxCell>
        <mxCell id="okzSlxfTijOoqXMAd6EK-20" style="edgeStyle=orthogonalEdgeStyle;rounded=0;orthogonalLoop=1;jettySize=auto;html=1;entryX=0.5;entryY=0;entryDx=0;entryDy=0;exitX=0.5;exitY=1;exitDx=0;exitDy=0;" edge="1" parent="1" source="outF" target="okzSlxfTijOoqXMAd6EK-14">
          <mxGeometry relative="1" as="geometry">
            <Array as="points">
              <mxPoint x="-58265" y="-12490" />
              <mxPoint x="-59170" y="-12490" />
            </Array>
          </mxGeometry>
        </mxCell>
        <mxCell id="outF" value="แสดงผล&#xa;F" style="shape=parallelogram;perimeter=parallelogramPerimeter;whiteSpace=wrap;html=1;" vertex="1" parent="1">
          <mxGeometry x="-58350" y="-12570" width="170" height="60" as="geometry" />
        </mxCell>
        <mxCell id="e0" style="endArrow=classic;orthogonal=1;rounded=0;" edge="1" parent="1" source="m0" target="m1" />
        <mxCell id="e1" style="endArrow=classic;orthogonal=1;rounded=0;" edge="1" parent="1" source="m1" target="m2" />
        <mxCell id="e2" style="endArrow=classic;orthogonal=1;rounded=0;" edge="1" parent="1" source="m2" target="m3" />
        <mxCell id="e3" style="endArrow=classic;orthogonal=1;rounded=0;" edge="1" parent="1" source="m3" target="m4" />
        <mxCell id="e4" style="endArrow=classic;orthogonal=1;rounded=0;" edge="1" parent="1" source="m4" target="c1" />
        <mxCell id="e5" value="True" style="endArrow=classic;orthogonal=1;rounded=0;" edge="1" parent="1" source="c1" target="outA" />
        <mxCell id="e6" value="False" style="endArrow=classic;orthogonal=1;rounded=0;" edge="1" parent="1" source="c1" target="c2" />
        <mxCell id="e7" style="endArrow=classic;orthogonal=1;rounded=0;" edge="1" parent="1" source="outA" target="stopA" />
        <mxCell id="e8" value="True" style="endArrow=classic;orthogonal=1;rounded=0;" edge="1" parent="1" source="c2" target="outB" />
        <mxCell id="e9" value="False" style="endArrow=classic;orthogonal=1;rounded=0;" edge="1" parent="1" source="c2" target="c3" />
        <mxCell id="e10" style="endArrow=classic;orthogonal=1;rounded=0;" edge="1" parent="1" source="outB" target="stopB" />
        <mxCell id="e11" value="True" style="endArrow=classic;orthogonal=1;rounded=0;" edge="1" parent="1" source="c3" target="outC" />
        <mxCell id="e12" value="False" style="endArrow=classic;orthogonal=1;rounded=0;" edge="1" parent="1" source="c3" target="c4" />
        <mxCell id="e13" style="endArrow=classic;orthogonal=1;rounded=0;" edge="1" parent="1" source="outC" target="stopC" />
        <mxCell id="e14" value="True" style="endArrow=classic;orthogonal=1;rounded=0;" edge="1" parent="1" source="c4" target="outD" />
        <mxCell id="e15" value="False" style="endArrow=classic;orthogonal=1;rounded=0;" edge="1" parent="1" source="c4" target="outF" />
        <mxCell id="e16" style="endArrow=classic;orthogonal=1;rounded=0;" edge="1" parent="1" source="outD" target="stopD" />
        <mxCell id="e17" style="endArrow=classic;orthogonal=1;rounded=0;" edge="1" parent="1" source="outF" target="stopF" />
        <mxCell id="okzSlxfTijOoqXMAd6EK-19" style="edgeStyle=orthogonalEdgeStyle;rounded=0;orthogonalLoop=1;jettySize=auto;html=1;entryX=0.5;entryY=0;entryDx=0;entryDy=0;" edge="1" parent="1" source="okzSlxfTijOoqXMAd6EK-14" target="stopB">
          <mxGeometry relative="1" as="geometry" />
        </mxCell>
        <mxCell id="okzSlxfTijOoqXMAd6EK-14" value="" style="ellipse;whiteSpace=wrap;html=1;aspect=fixed;" vertex="1" parent="1">
          <mxGeometry x="-59180" y="-12470" width="20" height="20" as="geometry" />
        </mxCell>
      </root>
    </mxGraphModel>
  </diagram>
</mxfile>
